:FULLY-SPECIFIED
:FORCE-ALL-JOINTS-BE-3DOF
:DEGREES
1427
root -2.10235 13.7224 12.6711 6.78415 27.0883 6.62582
lfemur 25.6359 -0.0857705 -10.3991
ltibia 16.5502 -0 0
lfoot -15.4484 34.4961 0.000165965
ltoes -24.0442 0 0
rfemur -65.8088 -21.5208 12.346
rtibia 74.0548 -0 0
rfoot -9.10489 10.5356 -0.000695526
rtoes 4.92206 -0 0
lowerback 10.2756 2.01877 -10.3284
upperback -3.32587 1.17955 -0.9614
thorax -9.62963 1.15638 4.5535
lowerneck 0.00705667 -11.6666 -10.4841
upperneck 5.92633 -16.044 9.71926
head 3.39443 -7.97543 3.89797
lclavicle 9.55664e-15 6.8357e-15 3.24624e-32
lhumerus -73.8138 -18.1922 104.422
lradius 100.904 -0 0
lwrist 58.3806 0 0
lhand -9.27656 41.9345 -0.000185194
lfingers 7.12502 -0 0
lthumb 16.6802 71.2375 -0.00017889
rclavicle 9.55664e-15 6.8357e-15 3.24624e-32
rhumerus 62.9893 -13.9229 -27.8067
rradius 82.2639 -0 0
rwrist 26.7152 0 0
rhand -43.652 -31.1666 0.000112552
rfingers 7.12502 -0 0
rthumb -16.4862 -60.4861 9.88724e-05
1428
root -2.10573 13.7198 12.673 6.79288 27.0907 6.6352
lfemur 25.6194 -0.0866912 -10.386
ltibia 16.5763 -0 0
lfoot -15.4344 34.5033 0.000137295
ltoes -23.9585 0 0
rfemur -65.8432 -21.5506 12.3669
rtibia 74.0937 -0 0
rfoot -9.12238 10.56 -0.000575377
rtoes 4.97975 -0 0
lowerback 10.2678 2.01213 -10.3413
upperback -3.33471 1.16955 -0.958866
thorax -9.6339 1.15295 4.56538
lowerneck -0.00157645 -11.6615 -10.4739
upperneck 5.93442 -16.0357 9.70184
head 3.39513 -7.97126 3.89135
lclavicle 9.52059e-15 7.3871e-15 2.68547e-32
lhumerus -73.8293 -18.2121 104.446
lradius 100.891 -0 0
lwrist 58.4051 0 0
lhand -9.2746 41.8767 -0.000153202
lfingers 7.12502 -0 0
lthumb 16.6821 71.1795 -0.000147987
rclavicle 9.52059e-15 7.3871e-15 2.68547e-32
rhumerus 62.9722 -13.9158 -27.8012
rradius 82.2755 -0 0
rwrist 26.677 0 0
rhand -43.6434 -31.1586 9.31092e-05
rfingers 7.12502 -0 0
rthumb -16.4778 -60.4788 8.17928e-05
1429
root -2.10881 13.7175 12.6747 6.80083 27.0928 6.64374
lfemur 25.6044 -0.0875252 -10.3742
ltibia 16.6001 -0 0
lfoot -15.4217 34.51 0.000109681
ltoes -23.8806 0 0
rfemur -65.8745 -21.5778 12.3859
rtibia 74.1292 -0 0
rfoot -9.13828 10.5821 -0.000459651
rtoes 5.03221 -0 0
lowerback 10.2606 2.00608 -10.353
upperback -3.34276 1.16046 -0.956559
thorax -9.63779 1.14983 4.57618
lowerneck -0.0094271 -11.6568 -10.4646
upperneck 5.94178 -16.0281 9.686
head 3.39577 -7.96745 3.88532
lclavicle 9.4878e-15 7.88858e-15 2.14534e-32
lhumerus -73.8434 -18.2302 104.468
lradius 100.879 -0 0
lwrist 58.4275 0 0
lhand -9.27281 41.8241 -0.000122388
lfingers 7.12502 -0 0
lthumb 16.6838 71.1268 -0.000118222
rclavicle 9.4878e-15 7.88858e-15 2.14534e-32
rhumerus 62.9566 -13.9092 -27.7961
rradius 82.2861 -0 0
rwrist 26.6422 0 0
rhand -43.6355 -31.1514 7.43822e-05
rfingers 7.12502 -0 0
rthumb -16.4703 -60.4722 6.53419e-05
1430
root -2.11156 13.7154 12.6763 6.80792 27.0948 6.65136
lfemur 25.591 -0.088267 -10.3636
ltibia 16.6213 -0 0
lfoot -15.4104 34.5159 8.37965e-05
ltoes -23.8111 0 0
rfemur -65.9025 -21.602 12.4029
rtibia 74.1608 -0 0
rfoot -9.15248 10.6019 -0.000351174
rtoes 5.07903 -0 0
lowerback 10.2542 2.00069 -10.3635
upperback -3.34994 1.15235 -0.954499
thorax -9.64126 1.14705 4.58582
lowerneck -0.0164331 -11.6527 -10.4563
upperneck 5.94834 -16.0214 9.67186
head 3.39634 -7.96406 3.87994
lclavicle 9.45854e-15 8.33615e-15 1.63905e-32
lhumerus -73.856 -18.2464 104.488
lradius 100.869 -0 0
lwrist 58.4474 0 0
lhand -9.27122 41.7772 -9.35039e-05
lfingers 7.12502 -0 0
lthumb 16.6853 71.0798 -9.03209e-05
rclavicle 9.45854e-15 8.33615e-15 1.63905e-32
rhumerus 62.9427 -13.9034 -27.7917
rradius 82.2955 -0 0
rwrist 26.6112 0 0
rhand -43.6285 -31.1449 5.68281e-05
rfingers 7.12502 -0 0
rthumb -16.4635 -60.4663 4.99213e-05
1431
root -2.11395 13.7135 12.6776 6.8141 27.0964 6.65799
lfemur 25.5793 -0.0889108 -10.3544
ltibia 16.6398 -0 0
lfoot -15.4005 34.521 6.03089e-05
ltoes -23.7506 0 0
rfemur -65.9269 -21.623 12.4176
rtibia 74.1883 -0 0
rfoot -9.16484 10.6191 -0.000252742
rtoes 5.11979 -0 0
lowerback 10.2487 1.99599 -10.3726
upperback -3.35619 1.14529 -0.952705
thorax -9.64428 1.14463 4.59421
lowerneck -0.0225321 -11.649 -10.4491
upperneck 5.95405 -16.0155 9.65955
head 3.39684 -7.96111 3.87525
lclavicle 9.43307e-15 8.72583e-15 1.17963e-32
lhumerus -73.867 -18.2605 104.505
lradius 100.859 -0 0
lwrist 58.4648 0 0
lhand -9.26983 41.7363 -6.7295e-05
lfingers 7.12502 -0 0
lthumb 16.6867 71.0388 -6.50042e-05
rclavicle 9.43307e-15 8.72583e-15 1.17963e-32
rhumerus 62.9306 -13.8983 -27.7878
rradius 82.3037 -0 0
rwrist 26.5842 0 0
rhand -43.6224 -31.1393 4.08996e-05
rfingers 7.12502 -0 0
rthumb -16.4576 -60.4612 3.59287e-05
1432
root -2.11596 13.712 12.6787 6.81929 27.0979 6.66357
lfemur 25.5695 -0.0894509 -10.3467
ltibia 16.6554 -0 0
lfoot -15.3922 34.5253 3.98662e-05
ltoes -23.6997 0 0
rfemur -65.9474 -21.6407 12.4301
rtibia 74.2115 -0 0
rfoot -9.17524 10.6336 -0.000167071
rtoes 5.15408 -0 0
lowerback 10.244 1.99204 -10.3803
upperback -3.36145 1.13935 -0.951196
thorax -9.64682 1.14259 4.60127
lowerneck -0.0276619 -11.646 -10.443
upperneck 5.95886 -16.0106 9.6492
head 3.39726 -7.95862 3.87131
lclavicle 9.41164e-15 9.0536e-15 7.79778e-33
lhumerus -73.8762 -18.2723 104.52
lradius 100.852 -0 0
lwrist 58.4794 0 0
lhand -9.26867 41.702 -4.44839e-05
lfingers 7.12502 -0 0
lthumb 16.6878 71.0044 -4.29697e-05
rclavicle 9.41164e-15 9.0536e-15 7.79778e-33
rhumerus 62.9204 -13.894 -27.7845
rradius 82.3106 -0 0
rwrist 26.5615 0 0
rhand -43.6172 -31.1345 2.7036e-05
rfingers 7.12502 -0 0
rthumb -16.4527 -60.4569 2.37501e-05
1433
root -2.11757 13.7107 12.6796 6.82345 27.099 6.66803
lfemur 25.5617 -0.0898815 -10.3405
ltibia 16.6678 -0 0
lfoot -15.3856 34.5288 2.30824e-05
ltoes -23.659 0 0
rfemur -65.9638 -21.6549 12.4401
rtibia 74.2299 -0 0
rfoot -9.18355 10.6451 -9.67332e-05
rtoes 5.18148 -0 0
lowerback 10.2403 1.98889 -10.3864
upperback -3.36566 1.1346 -0.949989
thorax -9.64885 1.14097 4.60691
lowerneck -0.0317603 -11.6436 -10.4382
upperneck 5.9627 -16.0067 9.64093
head 3.39759 -7.95664 3.86816
lclavicle 9.39452e-15 9.31549e-15 4.51489e-33
lhumerus -73.8836 -18.2818 104.532
lradius 100.845 -0 0
lwrist 58.4911 0 0
lhand -9.26774 41.6745 -2.57559e-05
lfingers 7.12502 -0 0
lthumb 16.6887 70.9768 -2.48791e-05
rclavicle 9.39452e-15 9.31549e-15 4.51489e-33
rhumerus 62.9123 -13.8906 -27.7819
rradius 82.3161 -0 0
rwrist 26.5433 0 0
rhand -43.6131 -31.1308 1.56538e-05
rfingers 7.12502 -0 0
rthumb -16.4487 -60.4534 1.37512e-05
1434
root -2.11875 13.7098 12.6803 6.82649 27.0998 6.6713
lfemur 25.5559 -0.0901967 -10.3359
ltibia 16.6769 -0 0
lfoot -15.3807 34.5313 1.05229e-05
ltoes -23.6292 0 0
rfemur -65.9758 -21.6652 12.4474
rtibia 74.2435 -0 0
rfoot -9.18964 10.6536 -4.40991e-05
rtoes 5.20156 -0 0
lowerback 10.2376 1.98657 -10.3909
upperback -3.36874 1.13112 -0.949104
thorax -9.65034 1.13977 4.61105
lowerneck -0.0347649 -11.6418 -10.4346
upperneck 5.96551 -16.0038 9.63487
head 3.39784 -7.95518 3.86585
lclavicle 9.38197e-15 9.5075e-15 2.05827e-33
lhumerus -73.889 -18.2887 104.54
lradius 100.841 -0 0
lwrist 58.4996 0 0
lhand -9.26705 41.6544 -1.17416e-05
lfingers 7.12502 -0 0
lthumb 16.6894 70.9567 -1.13419e-05
rclavicle 9.38197e-15 9.5075e-15 2.05827e-33
rhumerus 62.9063 -13.8881 -27.78
rradius 82.3202 -0 0
rwrist 26.53 0 0
rhand -43.6101 -31.128 7.13632e-06
rfingers 7.12502 -0 0
rthumb -16.4458 -60.4509 6.26898e-06
1435
root -2.11947 13.7093 12.6807 6.82836 27.1003 6.67331
lfemur 25.5524 -0.0903903 -10.3332
ltibia 16.6825 -0 0
lfoot -15.3777 34.5329 2.68882e-06
ltoes -23.6109 0 0
rfemur -65.9832 -21.6716 12.4519
rtibia 74.2519 -0 0
rfoot -9.19338 10.6588 -1.12682e-05
rtoes 5.21392 -0 0
lowerback 10.2359 1.98515 -10.3937
upperback -3.37063 1.12898 -0.94856
thorax -9.65126 1.13904 4.61359
lowerneck -0.0366134 -11.6407 -10.4324
upperneck 5.96724 -16.002 9.63114
head 3.39799 -7.95429 3.86443
lclavicle 9.37424e-15 9.62563e-15 5.2593e-34
lhumerus -73.8924 -18.2929 104.545
lradius 100.838 -0 0
lwrist 58.5049 0 0
lhand -9.26663 41.642 -3.0002e-06
lfingers 7.12502 -0 0
lthumb 16.6898 70.9442 -2.89807e-06
rclavicle 9.37424e-15 9.62563e-15 5.2593e-34
rhumerus 62.9027 -13.8865 -27.7788
rradius 82.3227 -0 0
rwrist 26.5218 0 0
rhand -43.6082 -31.1263 1.82347e-06
rfingers 7.12502 -0 0
rthumb -16.444 -60.4493 1.60185e-06
1436
root -2.11972 13.7091 12.6808 366.829 27.1005 366.674
lfemur 25.5512 -0.0904563 -10.3322
ltibia 16.6844 0 0
lfoot -15.3767 34.5334 0
ltoes -23.6046 0 0
rfemur -65.9857 -21.6738 12.4534
rtibia 74.2547 0 0
rfoot -9.19466 10.6606 0
rtoes 5.21813 0 0
lowerback 10.2353 1.98466 -10.3946
upperback -3.37128 1.12825 -0.948374
thorax -9.65157 1.13879 4.61446
lowerneck -0.0372435 -11.6403 -10.4317
upperneck 5.96783 -16.0014 9.62987
head 3.39804 -7.95398 3.86395
lclavicle 9.37161e-15 9.6659e-15 0
lhumerus -73.8935 -18.2944 104.547
lradius 100.837 0 0
lwrist 58.5067 0 0
lhand -9.26649 41.6378 0
lfingers 7.12502 0 0
lthumb 16.6899 -289.06 0
rclavicle 9.37161e-15 9.6659e-15 0
rhumerus 62.9014 -13.886 -27.7784
rradius 82.3235 0 0
rwrist 26.519 0 0
rhand -43.6076 -31.1257 0
rfingers 7.12502 0 0
rthumb -16.4434 -60.4488 0
1437
root -2.12139 13.7095 12.6806 6.83769 27.116 6.67804
lfemur 25.5269 -0.0966068 -10.3246
ltibia 16.6968 -0 0
lfoot -15.3735 34.5247 -0.000137421
ltoes -23.6224 0 0
rfemur -65.9879 -21.6652 12.4497
rtibia 74.2537 -0 0
rfoot -9.19345 10.6269 -0.000204147
rtoes 5.21141 -0 0
lowerback 10.2475 1.9858 -10.3864
upperback -3.36772 1.12951 -0.948172
thorax -9.65457 1.13896 4.60959
lowerneck -0.0490447 -11.6281 -10.4244
upperneck 5.96702 -15.9829 9.61732
head 3.39751 -7.94491 3.86025
lclavicle 9.32706e-15 9.60845e-15 -1.26994e-32
lhumerus -73.8483 -18.3054 104.537
lradius 100.834 -0 0
lwrist 58.489 0 0
lhand -9.29002 41.6397 -0.000225972
lfingers 7.12502 -0 0
lthumb 16.6672 70.9431 -0.000345433
rclavicle 9.32706e-15 9.60845e-15 -1.26994e-32
rhumerus 62.8803 -13.8558 -27.7711
rradius 82.3148 -0 0
rwrist 26.4889 0 0
rhand -43.5711 -31.1178 0.00144731
rfingers 7.12502 -0 0
rthumb -16.4082 -60.442 0.00120456
1438
root -2.12627 13.7105 12.6802 6.86319 27.1616 6.68993
lfemur 25.4557 -0.114633 -10.3023
ltibia 16.7331 -0 0
lfoot -15.3642 34.499 -0.000537762
ltoes -23.6745 0 0
rfemur -65.9944 -21.6399 12.4389
rtibia 74.2507 -0 0
rfoot -9.1899 10.528 -0.000798969
rtoes 5.19168 -0 0
lowerback 10.2834 1.98912 -10.3624
upperback -3.35728 1.13322 -0.947579
thorax -9.66339 1.13945 4.59531
lowerneck -0.0836556 -11.5923 -10.403
upperneck 5.96462 -15.9287 9.58051
head 3.39593 -7.9183 3.84939
lclavicle 9.19637e-15 9.43989e-15 -4.97001e-32
lhumerus -73.7158 -18.3377 104.508
lradius 100.825 -0 0
lwrist 58.437 0 0
lhand -9.35906 41.6454 -0.000884373
lfingers 7.12502 -0 0
lthumb 16.6006 70.952 -0.0013519
rclavicle 9.19637e-15 9.43989e-15 -4.97001e-32
rhumerus 62.8185 -13.7672 -27.7498
rradius 82.2893 -0 0
rwrist 26.4005 0 0
rhand -43.464 -31.0946 0.00566439
rfingers 7.12502 -0 0
rthumb -16.3048 -60.422 0.00471429
1439
root -2.13421 13.7123 12.6794 6.90469 27.2357 6.7093
lfemur 25.34 -0.143872 -10.2661
ltibia 16.7922 -0 0
lfoot -15.3491 34.4574 -0.00117962
ltoes -23.7593 0 0
rfemur -66.0049 -21.5989 12.4213
rtibia 74.2458 -0 0
rfoot -9.18413 10.3673 -0.00175266
rtoes 5.15961 -0 0
lowerback 10.3418 1.99448 -10.3234
upperback -3.3403 1.13924 -0.946614
thorax -9.67771 1.14023 4.57209
lowerneck -0.139871 -11.5341 -10.3683
upperneck 5.96064 -15.8406 9.5207
head 3.39337 -7.87505 3.83174
lclavicle 8.98394e-15 9.16592e-15 -1.09019e-31
lhumerus -73.5004 -18.39 104.46
lradius 100.81 -0 0
lwrist 58.3526 0 0
lhand -9.47127 41.6546 -0.00193995
lfingers 7.12502 -0 0
lthumb 16.4924 70.9666 -0.00296551
rclavicle 8.98394e-15 9.16592e-15 -1.09019e-31
rhumerus 62.7182 -13.6231 -27.7154
rradius 82.2478 -0 0
rwrist 26.2569 0 0
rhand -43.2899 -31.0569 0.0124258
rfingers 7.12502 -0 0
rthumb -16.1368 -60.3895 0.0103416
